<svg width="927" height="656" viewBox="0 0 927 656" fill="none" xmlns="http://www.w3.org/2000/svg">
<path d="M60.7082 577.338H68.9542V583H60.7082H57.5162H54.3242V555.184H60.7082V577.338ZM87.0166 583V581.86C86.5353 582.316 85.978 582.683 85.3446 582.962C84.7113 583.215 83.9766 583.342 83.1406 583.342H81.7726C80.2526 583.342 78.91 583.127 77.7446 582.696C76.6046 582.24 75.6293 581.632 74.8186 580.872C74.0333 580.087 73.438 579.187 73.0326 578.174C72.6273 577.135 72.4246 576.033 72.4246 574.868V561.872H78.8466L78.8846 574.868C78.8846 575.628 79.176 576.299 79.7586 576.882C80.3413 577.465 81.0126 577.756 81.7726 577.756H83.1406C84.3566 577.756 85.3066 577.465 85.9906 576.882C86.6746 576.274 87.0166 575.324 87.0166 574.032V561.872H93.4766V583H87.0166ZM119.824 583H113.364V569.966C113.364 569.206 113.073 568.547 112.49 567.99C111.908 567.407 111.236 567.116 110.476 567.116H109.07C107.854 567.116 106.904 567.42 106.22 568.028C105.562 568.611 105.232 569.548 105.232 570.84H105.194V583H98.7723V561.872H105.194V563.012C105.676 562.556 106.233 562.201 106.866 561.948C107.5 561.669 108.234 561.53 109.07 561.53H110.476C111.971 561.53 113.301 561.758 114.466 562.214C115.632 562.645 116.607 563.24 117.392 564C118.178 564.76 118.773 565.659 119.178 566.698C119.584 567.711 119.786 568.801 119.786 569.966L119.824 583ZM133.024 567.078C132.644 567.078 132.277 567.167 131.922 567.344C131.567 567.496 131.251 567.711 130.972 567.99C130.719 568.243 130.516 568.547 130.364 568.902C130.212 569.231 130.136 569.586 130.136 569.966V574.944C130.136 575.704 130.427 576.375 131.01 576.958C131.593 577.541 132.264 577.832 133.024 577.832H135.38C135.76 577.832 136.115 577.756 136.444 577.604C136.799 577.452 137.103 577.249 137.356 576.996C137.635 576.717 137.85 576.401 138.002 576.046C138.179 575.691 138.268 575.324 138.268 574.944H144.728C144.728 576.109 144.525 577.211 144.12 578.25C143.715 579.263 143.107 580.163 142.296 580.948C141.511 581.708 140.535 582.316 139.37 582.772C138.23 583.203 136.9 583.418 135.38 583.418H133.024C131.504 583.418 130.161 583.203 128.996 582.772C127.856 582.316 126.881 581.708 126.07 580.948C125.285 580.163 124.689 579.263 124.284 578.25C123.879 577.211 123.676 576.109 123.676 574.944V569.51H123.714C123.765 568.395 124.005 567.357 124.436 566.394C124.867 565.431 125.475 564.595 126.26 563.886C127.045 563.151 128.008 562.581 129.148 562.176C130.288 561.745 131.58 561.53 133.024 561.53H135.38C136.9 561.53 138.23 561.758 139.37 562.214C140.535 562.645 141.511 563.24 142.296 564C143.107 564.76 143.715 565.659 144.12 566.698C144.525 567.711 144.728 568.801 144.728 569.966H138.268C138.268 569.586 138.179 569.231 138.002 568.902C137.85 568.547 137.635 568.243 137.356 567.99C137.103 567.711 136.799 567.496 136.444 567.344C136.115 567.167 135.76 567.078 135.38 567.078H133.024ZM160.276 561.53C161.796 561.53 163.126 561.758 164.266 562.214C165.432 562.645 166.407 563.24 167.192 564C168.003 564.76 168.611 565.659 169.016 566.698C169.422 567.711 169.624 568.801 169.624 569.966L169.662 583H163.202V569.966C163.202 569.586 163.114 569.231 162.936 568.902C162.784 568.547 162.569 568.243 162.29 567.99C162.037 567.711 161.733 567.496 161.378 567.344C161.024 567.167 160.656 567.078 160.276 567.078H158.908C157.692 567.078 156.742 567.382 156.058 567.99C155.374 568.598 155.032 569.548 155.032 570.84V583H148.61L148.572 553.778H155.032V563.012C155.514 562.556 156.071 562.201 156.704 561.948C157.338 561.669 158.072 561.53 158.908 561.53H160.276ZM203.069 575.514C203.018 576.603 202.778 577.629 202.347 578.592C201.916 579.555 201.308 580.391 200.523 581.1C199.738 581.809 198.788 582.379 197.673 582.81C196.558 583.215 195.279 583.418 193.835 583.418H192.923C191.428 583.418 190.098 583.203 188.933 582.772C187.793 582.316 186.83 581.708 186.045 580.948C185.285 580.188 184.702 579.301 184.297 578.288C183.892 577.275 183.689 576.198 183.689 575.058V562.708C183.74 561.619 183.98 560.593 184.411 559.63C184.842 558.667 185.437 557.831 186.197 557.122C186.982 556.387 187.932 555.817 189.047 555.412C190.187 555.007 191.479 554.804 192.923 554.804H193.835C195.33 554.804 196.647 555.032 197.787 555.488C198.952 555.919 199.915 556.514 200.675 557.274C201.46 558.034 202.056 558.921 202.461 559.934C202.866 560.947 203.069 562.024 203.069 563.164V575.514ZM193.835 577.908C194.215 577.908 194.57 577.832 194.899 577.68C195.254 577.528 195.558 577.325 195.811 577.072C196.09 576.793 196.305 576.489 196.457 576.16C196.609 575.805 196.685 575.438 196.685 575.058V563.164C196.685 562.404 196.394 561.745 195.811 561.188C195.254 560.605 194.595 560.314 193.835 560.314H192.923C192.543 560.314 192.176 560.39 191.821 560.542C191.492 560.694 191.188 560.909 190.909 561.188C190.656 561.441 190.453 561.745 190.301 562.1C190.149 562.429 190.073 562.784 190.073 563.164V575.058C190.073 575.438 190.149 575.805 190.301 576.16C190.453 576.489 190.656 576.793 190.909 577.072C191.188 577.325 191.492 577.528 191.821 577.68C192.176 577.832 192.543 577.908 192.923 577.908H193.835ZM212.335 565.71H216.591V571.296H212.335V583H205.875V561.378H205.913C205.964 560.263 206.204 559.225 206.635 558.262C207.066 557.274 207.674 556.425 208.459 555.716C209.244 554.981 210.207 554.411 211.347 554.006C212.487 553.575 213.779 553.36 215.223 553.36L218.909 553.284V558.87L215.223 558.946C214.843 558.946 214.476 559.035 214.121 559.212C213.766 559.364 213.45 559.579 213.171 559.858C212.918 560.111 212.715 560.415 212.563 560.77C212.411 561.099 212.335 561.454 212.335 561.834V565.71ZM248.491 555.184V560.846H242.487V583H236.065V560.846H230.061V555.184H248.491ZM271.607 575.4C271.556 576.515 271.315 577.566 270.885 578.554C270.454 579.517 269.833 580.365 269.023 581.1C268.237 581.809 267.275 582.379 266.135 582.81C265.02 583.215 263.728 583.418 262.259 583.418H259.941C258.421 583.418 257.078 583.203 255.913 582.772C254.747 582.316 253.759 581.708 252.949 580.948C252.163 580.163 251.568 579.263 251.163 578.25C250.757 577.211 250.555 576.109 250.555 574.944V569.51H250.593C250.643 568.395 250.884 567.357 251.315 566.394C251.745 565.431 252.353 564.595 253.139 563.886C253.924 563.151 254.887 562.581 256.027 562.176C257.167 561.745 258.471 561.53 259.941 561.53H262.259C263.779 561.53 265.109 561.758 266.249 562.214C267.414 562.645 268.389 563.24 269.175 564C269.985 564.76 270.593 565.659 270.999 566.698C271.404 567.711 271.607 568.801 271.607 569.966L271.645 575.4H271.607ZM262.259 577.832C262.639 577.832 263.006 577.756 263.361 577.604C263.715 577.452 264.019 577.249 264.273 576.996C264.551 576.717 264.767 576.401 264.919 576.046C265.096 575.691 265.185 575.324 265.185 574.944V569.966C265.185 569.586 265.096 569.231 264.919 568.902C264.767 568.547 264.551 568.243 264.273 567.99C264.019 567.711 263.715 567.496 263.361 567.344C263.006 567.192 262.639 567.116 262.259 567.116H259.941C259.155 567.116 258.471 567.407 257.889 567.99C257.306 568.547 257.015 569.206 257.015 569.966V574.944C257.015 575.324 257.091 575.691 257.243 576.046C257.42 576.401 257.635 576.717 257.889 576.996C258.167 577.249 258.484 577.452 258.839 577.604C259.193 577.756 259.561 577.832 259.941 577.832H262.259ZM311.28 583H304.858L304.82 569.966C304.82 569.206 304.528 568.547 303.946 567.99C303.363 567.407 302.692 567.116 301.932 567.116H300.564C299.348 567.116 298.398 567.42 297.714 568.028C297.03 568.611 296.688 569.548 296.688 570.84V583H290.228V569.966C290.228 569.206 289.936 568.547 289.354 567.99C288.771 567.407 288.1 567.116 287.34 567.116H285.934C284.718 567.116 283.768 567.42 283.084 568.028C282.425 568.611 282.096 569.548 282.096 570.84V583H275.636V561.872H282.096V563.012C282.577 562.556 283.134 562.201 283.768 561.948C284.401 561.669 285.123 561.53 285.934 561.53H287.34C288.733 561.53 289.974 561.72 291.064 562.1C292.153 562.48 293.103 562.999 293.914 563.658C294.724 562.999 295.674 562.48 296.764 562.1C297.878 561.72 299.145 561.53 300.564 561.53H301.932C303.452 561.53 304.782 561.758 305.922 562.214C307.087 562.645 308.062 563.24 308.848 564C309.658 564.76 310.266 565.659 310.672 566.698C311.077 567.711 311.28 568.801 311.28 569.966V583ZM336.251 575.4C336.201 576.515 335.96 577.566 335.529 578.554C335.099 579.517 334.478 580.365 333.667 581.1C332.882 581.809 331.919 582.379 330.779 582.81C329.665 583.215 328.373 583.418 326.903 583.418H324.585C323.065 583.418 321.723 583.203 320.557 582.772C319.392 582.316 318.404 581.708 317.593 580.948C316.808 580.163 316.213 579.263 315.807 578.25C315.402 577.211 315.199 576.109 315.199 574.944V569.51H315.237C315.288 568.395 315.529 567.357 315.959 566.394C316.39 565.431 316.998 564.595 317.783 563.886C318.569 563.151 319.531 562.581 320.671 562.176C321.811 561.745 323.116 561.53 324.585 561.53H326.903C328.423 561.53 329.753 561.758 330.893 562.214C332.059 562.645 333.034 563.24 333.819 564C334.63 564.76 335.238 565.659 335.643 566.698C336.049 567.711 336.251 568.801 336.251 569.966L336.289 575.4H336.251ZM326.903 577.832C327.283 577.832 327.651 577.756 328.005 577.604C328.36 577.452 328.664 577.249 328.917 576.996C329.196 576.717 329.411 576.401 329.563 576.046C329.741 575.691 329.829 575.324 329.829 574.944V569.966C329.829 569.586 329.741 569.231 329.563 568.902C329.411 568.547 329.196 568.243 328.917 567.99C328.664 567.711 328.36 567.496 328.005 567.344C327.651 567.192 327.283 567.116 326.903 567.116H324.585C323.8 567.116 323.116 567.407 322.533 567.99C321.951 568.547 321.659 569.206 321.659 569.966V574.944C321.659 575.324 321.735 575.691 321.887 576.046C322.065 576.401 322.28 576.717 322.533 576.996C322.812 577.249 323.129 577.452 323.483 577.604C323.838 577.756 324.205 577.832 324.585 577.832H326.903ZM346.702 563.012C347.183 562.556 347.741 562.201 348.374 561.948C349.007 561.669 349.729 561.53 350.54 561.53H352.592V567.078H350.54C349.324 567.078 348.374 567.382 347.69 567.99C347.031 568.598 346.702 569.548 346.702 570.84V583H340.242V561.872H346.702V563.012ZM362.993 563.012C363.474 562.556 364.032 562.201 364.665 561.948C365.298 561.669 366.02 561.53 366.831 561.53H368.883V567.078H366.831C365.615 567.078 364.665 567.382 363.981 567.99C363.322 568.598 362.993 569.548 362.993 570.84V583H356.533V561.872H362.993V563.012ZM392.546 575.4C392.495 576.515 392.255 577.566 391.824 578.554C391.393 579.517 390.773 580.365 389.962 581.1C389.177 581.809 388.214 582.379 387.074 582.81C385.959 583.215 384.667 583.418 383.198 583.418H380.88C379.36 583.418 378.017 583.203 376.852 582.772C375.687 582.316 374.699 581.708 373.888 580.948C373.103 580.163 372.507 579.263 372.102 578.25C371.697 577.211 371.494 576.109 371.494 574.944V569.51H371.532C371.583 568.395 371.823 567.357 372.254 566.394C372.685 565.431 373.293 564.595 374.078 563.886C374.863 563.151 375.826 562.581 376.966 562.176C378.106 561.745 379.411 561.53 380.88 561.53H383.198C384.718 561.53 386.048 561.758 387.188 562.214C388.353 562.645 389.329 563.24 390.114 564C390.925 564.76 391.533 565.659 391.938 566.698C392.343 567.711 392.546 568.801 392.546 569.966L392.584 575.4H392.546ZM383.198 577.832C383.578 577.832 383.945 577.756 384.3 577.604C384.655 577.452 384.959 577.249 385.212 576.996C385.491 576.717 385.706 576.401 385.858 576.046C386.035 575.691 386.124 575.324 386.124 574.944V569.966C386.124 569.586 386.035 569.231 385.858 568.902C385.706 568.547 385.491 568.243 385.212 567.99C384.959 567.711 384.655 567.496 384.3 567.344C383.945 567.192 383.578 567.116 383.198 567.116H380.88C380.095 567.116 379.411 567.407 378.828 567.99C378.245 568.547 377.954 569.206 377.954 569.966V574.944C377.954 575.324 378.03 575.691 378.182 576.046C378.359 576.401 378.575 576.717 378.828 576.996C379.107 577.249 379.423 577.452 379.778 577.604C380.133 577.756 380.5 577.832 380.88 577.832H383.198ZM420.553 562.138H426.899L420.781 583H414.435L410.521 571.524L406.645 583H400.261L394.143 562.138H400.527L403.681 572.93L407.329 562.138H407.367H413.713L417.361 572.93L420.553 562.138ZM449.77 562.138C451.264 562.138 452.582 562.341 453.722 562.746C454.887 563.151 455.85 563.709 456.61 564.418C457.395 565.127 457.99 565.976 458.396 566.964C458.801 567.927 459.004 568.991 459.004 570.156L459.042 583H452.658V581.556C452.455 581.885 452.113 582.189 451.632 582.468C451.201 582.696 450.606 582.899 449.846 583.076C449.086 583.279 448.06 583.38 446.768 583.38C445.602 583.38 444.5 583.38 443.462 583.38C442.423 583.405 441.511 583.279 440.726 583C439.966 582.696 439.358 582.177 438.902 581.442C438.446 580.707 438.218 579.593 438.218 578.098V576.92V576.882V576.426H438.256C438.281 575.058 438.509 573.969 438.94 573.158C439.37 572.322 439.953 571.701 440.688 571.296C441.422 570.865 442.284 570.587 443.272 570.46C444.285 570.333 445.387 570.27 446.578 570.27V570.308H452.658V570.156C452.658 569.776 452.569 569.421 452.392 569.092C452.24 568.737 452.024 568.433 451.746 568.18C451.492 567.901 451.188 567.686 450.834 567.534C450.504 567.357 450.15 567.268 449.77 567.268L439.168 567.23V562.138H449.77ZM452.658 576.35V575.4H447.452H445.894C445.539 575.4 445.235 575.527 444.982 575.78C444.728 576.033 444.602 576.337 444.602 576.692V576.844V576.996C444.602 577.351 444.728 577.655 444.982 577.908C445.235 578.161 445.539 578.288 445.894 578.288H447.452H450.948C451.252 578.288 451.53 578.225 451.784 578.098C451.986 577.971 452.176 577.794 452.354 577.566C452.556 577.338 452.658 576.983 452.658 576.502V576.35ZM485.426 583H478.966V569.966C478.966 569.206 478.675 568.547 478.092 567.99C477.509 567.407 476.838 567.116 476.078 567.116H474.672C473.456 567.116 472.506 567.42 471.822 568.028C471.163 568.611 470.834 569.548 470.834 570.84H470.796V583H464.374V561.872H470.796V563.012C471.277 562.556 471.835 562.201 472.468 561.948C473.101 561.669 473.836 561.53 474.672 561.53H476.078C477.573 561.53 478.903 561.758 480.068 562.214C481.233 562.645 482.209 563.24 482.994 564C483.779 564.76 484.375 565.659 484.78 566.698C485.185 567.711 485.388 568.801 485.388 569.966L485.426 583ZM510.406 583H507.974H497.79C496.675 583 495.611 582.797 494.598 582.392C493.61 581.961 492.736 581.391 491.976 580.682C491.216 579.947 490.608 579.099 490.152 578.136C489.696 577.173 489.43 576.135 489.354 575.02V570.308C489.354 569.143 489.569 568.053 490 567.04C490.456 566.001 491.064 565.102 491.824 564.342C492.584 563.582 493.47 562.987 494.484 562.556C495.522 562.1 496.624 561.872 497.79 561.872H503.908V553.778H510.406V583ZM494.902 574.526C494.902 574.906 494.978 575.273 495.13 575.628C495.282 575.983 495.484 576.299 495.738 576.578C496.016 576.831 496.333 577.047 496.688 577.224C497.042 577.376 497.41 577.452 497.79 577.452H503.908V567.42H497.79C497.41 567.42 497.042 567.509 496.688 567.686C496.333 567.838 496.016 568.053 495.738 568.332C495.484 568.585 495.282 568.889 495.13 569.244C494.978 569.573 494.902 569.928 494.902 570.308V574.526ZM538.297 561.872C539.463 561.872 540.552 562.1 541.565 562.556C542.604 562.987 543.503 563.582 544.263 564.342C545.023 565.102 545.619 566.001 546.049 567.04C546.505 568.053 546.733 569.143 546.733 570.308V575.02C546.683 576.135 546.417 577.173 545.935 578.136C545.479 579.099 544.871 579.947 544.111 580.682C543.351 581.391 542.465 581.961 541.451 582.392C540.463 582.797 539.412 583 538.297 583H528.037H525.567V553.778H532.065V561.872H538.297ZM538.297 577.452C538.677 577.452 539.032 577.376 539.361 577.224C539.716 577.047 540.02 576.831 540.273 576.578C540.552 576.299 540.767 575.983 540.919 575.628C541.097 575.273 541.185 574.906 541.185 574.526V570.308C541.185 569.928 541.097 569.573 540.919 569.244C540.767 568.889 540.552 568.585 540.273 568.332C540.02 568.053 539.716 567.838 539.361 567.686C539.032 567.509 538.677 567.42 538.297 567.42H532.065V577.452H538.297ZM570.3 570.232V574.336L555.708 574.374V574.944C555.708 575.704 555.999 576.312 556.582 576.768C557.165 577.199 557.849 577.414 558.634 577.414H566.918V582.962H558.634C557.114 582.962 555.771 582.759 554.606 582.354C553.466 581.949 552.491 581.391 551.68 580.682C550.895 579.973 550.299 579.137 549.894 578.174C549.489 577.186 549.286 576.109 549.286 574.944L549.248 569.51H549.286C549.337 568.395 549.577 567.357 550.008 566.394C550.439 565.431 551.047 564.595 551.832 563.886C552.643 563.151 553.605 562.581 554.72 562.176C555.86 561.745 557.165 561.53 558.634 561.53H560.952C562.396 561.53 563.688 561.745 564.828 562.176C565.968 562.607 566.931 563.202 567.716 563.962C568.501 564.697 569.109 565.558 569.54 566.546C569.996 567.534 570.249 568.585 570.3 569.7V570.004V570.232ZM563.802 569.7C563.675 569.016 563.333 568.408 562.776 567.876C562.244 567.344 561.636 567.078 560.952 567.078H558.634C557.899 567.078 557.253 567.344 556.696 567.876C556.139 568.383 555.822 568.991 555.746 569.7H563.802ZM596.255 555.184L587.363 570.612V583H580.941V570.612L572.049 555.184H579.497L584.171 564.532L588.807 555.184H596.255ZM619.025 575.4C618.974 576.515 618.733 577.566 618.303 578.554C617.872 579.517 617.251 580.365 616.441 581.1C615.655 581.809 614.693 582.379 613.553 582.81C612.438 583.215 611.146 583.418 609.677 583.418H607.359C605.839 583.418 604.496 583.203 603.331 582.772C602.165 582.316 601.177 581.708 600.367 580.948C599.581 580.163 598.986 579.263 598.581 578.25C598.175 577.211 597.973 576.109 597.973 574.944V569.51H598.011C598.061 568.395 598.302 567.357 598.733 566.394C599.163 565.431 599.771 564.595 600.557 563.886C601.342 563.151 602.305 562.581 603.445 562.176C604.585 561.745 605.889 561.53 607.359 561.53H609.677C611.197 561.53 612.527 561.758 613.667 562.214C614.832 562.645 615.807 563.24 616.593 564C617.403 564.76 618.011 565.659 618.417 566.698C618.822 567.711 619.025 568.801 619.025 569.966L619.063 575.4H619.025ZM609.677 577.832C610.057 577.832 610.424 577.756 610.779 577.604C611.133 577.452 611.437 577.249 611.691 576.996C611.969 576.717 612.185 576.401 612.337 576.046C612.514 575.691 612.603 575.324 612.603 574.944V569.966C612.603 569.586 612.514 569.231 612.337 568.902C612.185 568.547 611.969 568.243 611.691 567.99C611.437 567.711 611.133 567.496 610.779 567.344C610.424 567.192 610.057 567.116 609.677 567.116H607.359C606.573 567.116 605.889 567.407 605.307 567.99C604.724 568.547 604.433 569.206 604.433 569.966V574.944C604.433 575.324 604.509 575.691 604.661 576.046C604.838 576.401 605.053 576.717 605.307 576.996C605.585 577.249 605.902 577.452 606.257 577.604C606.611 577.756 606.979 577.832 607.359 577.832H609.677ZM644.106 583H637.646V569.966C637.646 569.206 637.354 568.547 636.772 567.99C636.189 567.407 635.518 567.116 634.758 567.116H633.352C632.136 567.116 631.186 567.42 630.502 568.028C629.843 568.611 629.514 569.548 629.514 570.84H629.476V583H623.054V561.872H629.476V563.012C629.957 562.556 630.514 562.201 631.148 561.948C631.781 561.669 632.516 561.53 633.352 561.53H634.758C636.252 561.53 637.582 561.758 638.748 562.214C639.913 562.645 640.888 563.24 641.674 564C642.459 564.76 643.054 565.659 643.46 566.698C643.865 567.711 644.068 568.801 644.068 569.966L644.106 583ZM669.085 583H666.653H656.469C655.355 583 654.291 582.797 653.277 582.392C652.289 581.961 651.415 581.391 650.655 580.682C649.895 579.947 649.287 579.099 648.831 578.136C648.375 577.173 648.109 576.135 648.033 575.02V570.308C648.033 569.143 648.249 568.053 648.679 567.04C649.135 566.001 649.743 565.102 650.503 564.342C651.263 563.582 652.15 562.987 653.163 562.556C654.202 562.1 655.304 561.872 656.469 561.872H662.587V553.778H669.085V583ZM653.581 574.526C653.581 574.906 653.657 575.273 653.809 575.628C653.961 575.983 654.164 576.299 654.417 576.578C654.696 576.831 655.013 577.047 655.367 577.224C655.722 577.376 656.089 577.452 656.469 577.452H662.587V567.42H656.469C656.089 567.42 655.722 567.509 655.367 567.686C655.013 567.838 654.696 568.053 654.417 568.332C654.164 568.585 653.961 568.889 653.809 569.244C653.657 569.573 653.581 569.928 653.581 570.308V574.526Z" fill="#E94141"/>
<path d="M718 522.5L745.17 501.874L738.958 473.357L767.938 478.782L789.5 453L811.933 478.894L840.064 473.357L835.774 500.282L861 522.5L836.288 543.843L840.064 571.643L810.727 568.527L789.5 592L767.402 568.437L738.958 571.643L744.991 541.041L718 522.5Z" fill="#E84341"/>
<path d="M867.451 51.5257C865.283 78.9363 863.001 106.164 861.038 133.37C859.92 148.798 859.098 164.204 858.573 179.632C857.158 220.12 855.994 260.609 854.716 301.097C854.511 307.967 854.282 314.859 854.054 321.729C854.031 322.505 853.894 323.304 853.803 324.24C851.954 324.422 850.334 324.582 848.691 324.719C835.91 325.655 823.106 326.613 810.302 327.504C808.043 327.663 805.692 327.732 803.409 327.686C780.175 327.116 756.941 326.522 733.708 325.906C732.498 325.883 731.311 325.746 729.577 325.632C729.577 324.651 729.531 323.738 729.577 322.825C730.489 305.958 731.516 289.092 732.27 272.203C732.521 266.406 732.201 260.609 731.836 254.835C730.056 226.009 728.184 197.206 726.336 168.38C723.643 126.523 720.926 84.6877 718.256 42.83C718.096 40.4564 718.233 38.0828 718.233 35.4353C720.356 35.3897 722.296 35.3212 724.236 35.344C746.42 35.4582 768.627 35.4125 790.811 35.732C811.215 36.0059 831.459 35.1158 851.726 34.4311C855.72 34.2942 859.714 34.1344 863.708 34.0203C865.192 33.9746 866.675 34.0203 868.821 34.0203C868.341 39.9315 867.908 45.6373 867.451 51.5257Z" fill="#E94241"/>
<path d="M188.304 347.279C188.22 326.664 187.946 306.365 188.094 286.044C188.241 263.307 188.745 240.591 189.081 217.854C189.249 207.116 189.396 196.378 189.543 185.64C189.964 155.759 190.384 125.856 190.825 95.9742C191.099 77.0197 191.372 58.0653 191.645 39.1108C191.666 38.3543 191.729 37.5768 191.771 36.6732C192.254 36.5261 192.696 36.2949 193.137 36.2529C203.307 35.4334 213.457 34.6558 223.628 33.8363C234.723 32.9537 245.818 31.9871 256.935 31.1465C259.414 30.9574 261.894 30.9574 264.374 31.1255C276.015 31.84 287.657 32.6175 299.299 33.395C312.222 34.2566 325.124 35.1392 338.027 36.0218C339.834 36.1478 341.62 36.2529 343.659 36.379C343.701 37.5137 343.806 38.5434 343.785 39.5521C343.638 48.7351 343.47 57.9182 343.301 67.1222C342.923 86.7491 342.524 106.376 342.146 126.024C341.683 148.95 341.242 171.855 340.78 194.781C340.401 214.597 340.149 234.434 339.624 254.25C338.699 289.554 339.372 324.878 339.435 360.181C339.519 411.644 339.834 463.128 340.044 514.591C340.044 516.104 339.981 517.638 339.939 519.361C339.12 519.466 338.468 519.592 337.817 519.613C313.651 520.496 289.464 521.504 265.298 522.135C258.006 522.324 250.715 521.462 243.423 521C226.822 519.949 210.221 518.835 193.641 517.743C192.443 517.659 191.246 517.533 189.838 517.385C189.796 516.02 189.733 514.801 189.712 513.582C189.522 489.878 189.354 466.175 189.165 442.471C188.871 410.845 188.577 379.199 188.304 347.279ZM297.113 90.6787L266.685 87.5266L233.988 90.6787L232.475 472.332L265.34 475.148L300.643 471.071L297.113 90.6787Z" fill="#1C9D93"/>
<path d="M662.25 32.7442C665.549 33.0594 668.68 33.3535 672 33.6687C671.916 35.1817 671.895 36.2955 671.769 37.4092C668.827 65.7358 665.885 94.0625 662.943 122.368C659.623 154.33 656.324 186.271 652.982 218.233C650.503 242.147 647.939 266.04 645.522 289.974C643.883 306.344 642.391 322.735 640.899 339.126C639.429 355.327 638.042 371.55 636.634 387.773C635.226 403.995 633.86 420.218 632.452 436.42C631.17 451.108 629.867 465.776 628.606 480.444C627.598 492.043 626.61 503.664 625.622 515.264C625.496 516.777 625.307 518.29 625.097 520.076C624.109 520.076 623.248 520.097 622.407 520.076C604.314 519.466 586.243 518.71 568.15 518.311C563.548 518.206 558.925 519.151 554.323 519.719C548.922 520.391 543.522 521.169 538.121 521.883C537.47 521.967 536.818 521.988 535.978 522.051C535.999 521.19 535.978 520.559 536.062 519.95C538.436 501.71 540.811 483.47 543.206 465.23C546.611 439.194 550.057 413.157 553.419 387.1C553.629 385.44 553.629 383.612 553.44 381.931C550.834 358.143 548.187 334.356 545.56 310.589C543.332 290.542 541.147 270.474 538.941 250.426C536.587 229.223 534.233 208.041 531.88 186.839C529.8 168.031 527.74 149.224 525.66 130.416C523.453 110.453 521.247 90.5111 519.041 70.548C517.696 58.318 516.351 46.1089 515.006 33.8789C514.964 33.5006 514.985 33.1224 514.964 32.597C515.384 32.492 515.762 32.3239 516.141 32.3449C533.078 33.3535 550.015 34.3202 566.931 35.4549C572.1 35.8122 577.249 35.1817 582.376 34.7405C588.26 34.2571 594.144 33.6898 600.028 33.1644C600.553 33.1224 601.078 33.1644 601.793 33.1644C601.94 34.6774 602.129 35.9803 602.192 37.3041C602.78 47.4118 603.327 57.5405 603.936 67.6481C604.672 80.2774 605.47 92.8857 606.227 105.494C606.689 113.29 607.088 121.107 607.551 128.903C608.16 139.305 608.811 149.707 609.421 160.109C609.862 167.716 610.282 175.344 610.745 182.951C611.228 191.23 611.732 199.51 612.216 207.81C612.657 215.417 613.098 223.024 613.54 230.652C613.582 231.43 613.603 232.207 613.666 232.964C613.729 233.994 614.128 234.54 614.842 234.561C617.322 234.582 619.781 234.561 622.512 234.561C623.815 223.171 624.698 211.866 625.791 200.624C626.883 189.318 627.913 178.013 628.985 166.707C630.035 155.402 631.107 144.096 632.158 132.77C633.208 121.549 634.238 110.348 635.289 99.1268C636.339 87.8214 637.39 76.4949 638.441 65.1895C639.492 53.905 640.563 42.6206 641.677 31C648.612 31.3993 655.336 32.2188 662.25 32.7442Z" fill="#1C9D93"/>
<path d="M474.973 120.309C474.469 137.12 473.965 153.658 473.46 170.175C473.145 180.913 472.704 191.63 472.536 202.368C472.284 217.645 472.137 232.943 472.115 248.22C472.073 337.529 472.094 426.838 472.094 516.146C472.094 517.575 472.094 518.983 472.094 520.748C471.044 520.748 470.266 520.79 469.489 520.748C450.934 519.74 432.399 518.584 413.844 517.743C407.96 517.47 402.056 518.017 396.172 518.227C393.083 518.332 390.015 518.542 386.926 518.689C386.127 518.731 385.35 518.689 384.299 518.689C384.278 517.323 384.194 516.209 384.236 515.096C384.53 502.13 384.845 489.186 385.16 476.22C385.917 445.666 386.547 415.091 387.493 384.558C388.46 353.121 388.397 321.684 388.397 290.227C388.397 219.683 388.397 149.14 388.397 78.5965C388.397 77.0835 388.313 75.5495 388.27 73.6372C377.196 74.1836 366.353 75.5495 355.258 76.1379C354.732 61.9325 354.901 48.0634 354.69 33.753C355.867 33.753 356.792 33.732 357.695 33.753C372.888 34.2994 388.102 34.7406 403.295 35.4341C412.352 35.8544 421.388 35.1399 430.424 34.7196C439.124 34.3203 447.824 33.795 456.523 33.3327C471.044 32.5762 485.585 31.8197 500.106 31.1052C501.766 31.0212 503.426 31.0842 505.023 31.0842C505.548 33.5849 506.431 70.8844 506.053 74.6669C505.254 74.7089 504.414 74.814 503.573 74.772C495.336 74.4147 487.098 74.0365 478.861 73.6582C478.146 73.6162 477.432 73.6582 476.423 73.6582C475.835 89.3555 475.541 104.696 474.973 120.309Z" fill="#1C9D93"/>
<path d="M56.0013 289.722C57.1991 255.091 56.3795 220.755 56.1063 186.418C55.7281 136.783 55.2658 87.1487 54.8455 37.514C54.8455 36.4633 54.8455 35.4126 54.8455 34.0047C55.7281 33.8996 74.1782 34.9293 75.9644 34.6141C77.6455 34.3199 97.2514 35.8539 107.905 36.1271C113.117 36.2742 118.349 35.6648 123.561 35.2865C128.982 34.8873 134.383 34.3409 139.804 33.8786C140.456 33.8156 141.128 33.8786 142.011 33.8786C142.074 34.9293 142.221 35.8539 142.2 36.7575C141.822 58.7169 141.422 80.6764 141.023 102.615C140.876 111.315 140.687 120.014 140.54 128.735C139.93 163.261 139.342 197.786 138.733 232.333C138.354 253.893 137.955 275.475 137.556 297.035C137.094 321.978 136.526 346.943 136.19 371.886C136.064 381.153 136.4 390.462 136.568 399.729C136.736 409.017 136.967 418.306 137.157 427.573C137.43 441.589 137.703 455.626 137.976 469.642C137.997 470.231 138.018 470.798 138.018 471.387C138.018 472.689 138.417 473.383 139.363 473.32C139.888 473.278 140.435 473.278 140.96 473.257C152.013 472.668 163.046 472.08 174.099 471.492C174.813 471.45 175.528 471.492 176.41 471.492C176.578 488.639 176.747 505.492 176.915 522.681C175.969 522.681 175.255 522.744 174.54 522.681C156.952 521.021 139.384 519.319 121.795 517.659C120.535 517.533 119.253 517.491 117.971 517.512C96.4738 517.911 74.9557 518.331 53.4586 518.752C52.7441 518.773 52.0087 518.752 51 518.752C51.4833 493.073 52.0927 467.688 52.6181 442.303C53.1434 416.961 53.7318 391.618 54.2781 366.296C54.9086 340.891 55.4549 315.443 56.0013 289.722Z" fill="#1C9D93"/>
</svg>
